<svg xmlns="http://www.w3.org/2000/svg" viewBox="0 0 49.73 42.76"><defs><style>.cls-1{fill:#f39200;}.cls-2{fill:#244898;}</style></defs><g id="Calque_2" data-name="Calque 2"><g id="Calque_1-2" data-name="Calque 1"><path class="cls-1" d="M39.16,22.3l-5.79,4.18A.87.87,0,0,1,32,25.77V17.42a.87.87,0,0,1,1.38-.71l5.79,4.18A.86.86,0,0,1,39.16,22.3Z"/><path class="cls-2" d="M20.35,25.33a14,14,0,0,0,3.55,6.09A14,14,0,0,1,0,21.56V.66A.67.67,0,0,1,.66,0H6.32A.67.67,0,0,1,7,.66v8.8A14,14,0,0,1,23.9,11.71a13.79,13.79,0,0,0-3.56,6.12A7.36,7.36,0,0,0,7,19.4a7.4,7.4,0,0,0,0,4.37,7.36,7.36,0,0,0,13.37,1.56Z"/><path class="cls-1" d="M.27,38.36H2.52a1.52,1.52,0,0,1,1,.31,1.08,1.08,0,0,1,.38.89,1,1,0,0,1-.12.48.79.79,0,0,1-.33.37.9.9,0,0,1,.44.36,1,1,0,0,1,.14.58,1.25,1.25,0,0,1-.19.7,1.33,1.33,0,0,1-.51.46,1.72,1.72,0,0,1-.72.15H.27ZM2.19,40a.51.51,0,0,0,.32-.1.37.37,0,0,0,.1-.29.38.38,0,0,0-.1-.3.57.57,0,0,0-.33-.08H1.55V40Zm.07,1.73a.55.55,0,0,0,.37-.1.37.37,0,0,0,.12-.32A.41.41,0,0,0,2.63,41a.57.57,0,0,0-.38-.11h-.7v.85Z"/><path class="cls-1" d="M4.41,38.36H5.69v3.23H7.42v1.07h-3Z"/><path class="cls-1" d="M8.47,42.47a2.1,2.1,0,0,1-.83-.79,2.36,2.36,0,0,1,0-2.34,2.1,2.1,0,0,1,.83-.79,2.49,2.49,0,0,1,1.19-.29,2.43,2.43,0,0,1,1.18.29,2.1,2.1,0,0,1,.83.79,2.36,2.36,0,0,1,0,2.34,2.1,2.1,0,0,1-.83.79,2.43,2.43,0,0,1-1.18.29A2.49,2.49,0,0,1,8.47,42.47Zm1.7-1a.86.86,0,0,0,.37-.36,1.11,1.11,0,0,0,.14-.56,1,1,0,0,0-.29-.76,1.1,1.1,0,0,0-1.47,0,1,1,0,0,0-.29.76,1.11,1.11,0,0,0,.14.56.86.86,0,0,0,.37.36,1,1,0,0,0,.52.13A1,1,0,0,0,10.17,41.43Z"/><path class="cls-1" d="M12.35,38.36h1.23l1.35,2.25V38.36H16.2v4.3H15l-1.35-2.25v2.25H12.35Z"/><path class="cls-1" d="M16.69,38.36h1.6a2.91,2.91,0,0,1,1.25.25,1.92,1.92,0,0,1,.82.75,2.09,2.09,0,0,1,.29,1.13A2,2,0,0,1,20,42.11a2.54,2.54,0,0,1-1.74.55H16.69Zm1.68,3.23a.91.91,0,0,0,.73-.3,1.16,1.16,0,0,0,.25-.8,1.12,1.12,0,0,0-.25-.76.9.9,0,0,0-.71-.3H18v2.16Z"/><path class="cls-1" d="M21,38.36H22.3v4.3H21Z"/><path class="cls-1" d="M22.79,38.36H24l1.34,2.25V38.36h1.28v4.3H25.41l-1.34-2.25v2.25H22.79Z"/><path class="cls-1" d="M30.28,42.47a1.93,1.93,0,0,1-.81-.79,2.43,2.43,0,0,1,0-2.34,2,2,0,0,1,.8-.79,2.45,2.45,0,0,1,2.31,0,2,2,0,0,1,.8.79,2.43,2.43,0,0,1,0,2.34,1.93,1.93,0,0,1-.81.79,2.41,2.41,0,0,1-2.29,0Zm2-.37a1.55,1.55,0,0,0,.64-.63,1.85,1.85,0,0,0,.24-1,1.94,1.94,0,0,0-.23-.95,1.68,1.68,0,0,0-.64-.63,1.79,1.79,0,0,0-.89-.23,1.83,1.83,0,0,0-.91.22,1.64,1.64,0,0,0-.64.64,2,2,0,0,0,0,1.91,1.55,1.55,0,0,0,.64.63,1.93,1.93,0,0,0,1.79,0Z"/><path class="cls-1" d="M34.42,38.36h2.77v.4H34.9V40.3h1.72v.41H34.9v1.95h-.48Z"/><path class="cls-1" d="M37.81,38.36h2.77v.4H38.29V40.3H40v.41H38.29v1.95h-.48Z"/><path class="cls-1" d="M41.2,38.36h.48v4.3H41.2Z"/><path class="cls-1" d="M43.52,42.48a2.05,2.05,0,0,1-.81-.79,2.55,2.55,0,0,1,0-2.36,2.05,2.05,0,0,1,.81-.79,2.46,2.46,0,0,1,1.16-.28,2.3,2.3,0,0,1,1.48.47v.47a2.08,2.08,0,0,0-1.44-.5,1.88,1.88,0,0,0-.93.22,1.58,1.58,0,0,0-.65.63,1.9,1.9,0,0,0-.24,1,1.85,1.85,0,0,0,.24,1,1.71,1.71,0,0,0,.65.63,1.93,1.93,0,0,0,.93.22,2.68,2.68,0,0,0,.83-.12,1.9,1.9,0,0,0,.67-.41v.48a2.28,2.28,0,0,1-1.54.49A2.46,2.46,0,0,1,43.52,42.48Z"/><path class="cls-1" d="M47,38.36h2.77v.4H47.44V40.3h1.72v.41H47.44v1.55h2.29v.4H47Z"/><path class="cls-2" d="M35.69,7.58a14,14,0,0,0-14,14,13.79,13.79,0,0,0,.52,3.77A14,14,0,1,0,35.69,7.58Zm0,22.39a8.38,8.38,0,1,1,8.37-8.38A8.38,8.38,0,0,1,35.71,30Z"/></g></g></svg>